<?xml version="1.0" standalone="no"?>
<!DOCTYPE svg PUBLIC "-//W3C//DTD SVG 20010904//EN"
 "http://www.w3.org/TR/2001/REC-SVG-20010904/DTD/svg10.dtd">
<svg version="1.0" xmlns="http://www.w3.org/2000/svg"
 width="1024.000000pt" height="1024.000000pt" viewBox="0 0 1024.000000 1024.000000"
 preserveAspectRatio="xMidYMid meet">

<g transform="translate(0.000000,1024.000000) scale(0.100000,-0.100000)"
fill="#FFFFFF" stroke="none">
<path d="M3005 9986 c-185 -43 -331 -151 -413 -305 -39 -71 -107 -280 -96
-290 5 -4 1586 -515 3514 -1134 1928 -620 3594 -1156 3702 -1191 l198 -63 41
125 c49 153 59 258 35 371 -41 192 -181 362 -356 431 -29 11 -1208 392 -2619
846 -1411 454 -2691 866 -2843 915 -684 220 -836 269 -888 284 -78 23 -203 28
-275 11z"/>
<path d="M2175 8427 c-2 -6 -146 -459 -320 -1005 -174 -546 -319 -1000 -322
-1008 -4 -12 389 -14 2965 -14 2076 0 2994 -3 3048 -11 433 -60 785 -407 843
-832 7 -52 11 -465 11 -1233 0 -969 2 -1154 14 -1154 7 0 47 17 87 37 103 51
213 161 262 263 45 93 842 2569 830 2580 -4 4 -51 22 -103 38 -122 39 -302 97
-675 217 -165 53 -1720 553 -3455 1111 -1735 558 -3161 1017 -3168 1019 -7 3
-15 -1 -17 -8z"/>
<path d="M652 6000 c-108 -29 -187 -75 -272 -160 -87 -86 -141 -184 -165 -296
-22 -104 -22 -3964 0 -4068 24 -112 78 -210 165 -296 86 -87 164 -132 276
-160 76 -20 124 -20 3444 -20 3320 0 3368 0 3444 20 114 29 190 73 276 160 87
86 142 185 165 296 22 104 22 3964 0 4068 -23 111 -78 210 -165 296 -86 87
-162 131 -276 160 -76 20 -123 20 -3448 19 -3286 0 -3373 -1 -3444 -19z m6251
-829 c21 -13 50 -42 65 -64 l27 -41 0 -566 0 -566 -27 -41 c-15 -22 -44 -51
-65 -64 l-38 -24 -565 0 -565 0 -38 24 c-21 13 -50 42 -65 64 l-27 41 -3 543
c-2 368 1 556 8 584 13 48 76 114 122 128 20 6 253 9 583 8 l550 -2 38 -24z
m-1903 -2871 l0 -300 -2000 0 -2000 0 0 300 0 300 2000 0 2000 0 0 -300z"/>
</g>
</svg>
