<svg width="24.000000" height="24.000000" viewBox="0 0 24 24" fill="none" xmlns="http://www.w3.org/2000/svg" xmlns:xlink="http://www.w3.org/1999/xlink">
	<desc>
			Created with Pixso.
	</desc>
	<defs>
		<clipPath id="clip5_154">
			<rect id="ContactlessPayment" width="24.000000" height="24.000000" fill="white" fill-opacity="0"/>
		</clipPath>
	</defs>
	<g opacity="0.800000">
		<rect id="ContactlessPayment" width="24.000000" height="24.000000" fill="#FFFFFF" fill-opacity="0"/>
		<g clip-path="url(#clip5_154)">
			<path id="Vector" d="M12 2.25C10.0717 2.25 8.18652 2.82184 6.58325 3.89319C4.97986 4.96454 3.7301 6.48724 2.99219 8.26886C2.25427 10.0504 2.06116 12.0108 2.43738 13.9021C2.8136 15.7935 3.74219 17.5307 5.10571 18.8943C6.46924 20.2579 8.20654 21.1865 10.0979 21.5627C11.9891 21.9388 13.9496 21.7458 15.7312 21.0078C17.5127 20.2699 19.0355 19.0202 20.1068 17.4168C21.1782 15.8134 21.75 13.9283 21.75 12C21.7473 9.41498 20.7191 6.93658 18.8912 5.1087C17.0634 3.28082 14.5851 2.25275 12 2.25ZM12 20.25C10.3683 20.25 8.77332 19.7662 7.4165 18.8596C6.05981 17.9531 5.00244 16.6646 4.37805 15.1572C3.75354 13.6497 3.59021 11.9908 3.90857 10.3905C4.22681 8.79016 5.01257 7.32013 6.16638 6.16638C7.32019 5.01257 8.79016 4.22687 10.3905 3.90851C11.9908 3.59021 13.6497 3.7536 15.1571 4.37799C16.6647 5.00244 17.9531 6.05981 18.8596 7.41656C19.7661 8.77325 20.25 10.3683 20.25 12C20.2476 14.1873 19.3776 16.2842 17.8309 17.8309C16.2843 19.3775 14.1873 20.2475 12 20.25ZM9.10034 9.39935C9.52417 10.2007 9.74573 11.0935 9.74573 12C9.74573 12.9065 9.52417 13.7993 9.10034 14.6006C9.05554 14.6898 8.99329 14.7691 8.91748 14.8339C8.84155 14.8988 8.75354 14.9478 8.65845 14.9781C8.56335 15.0085 8.46326 15.0197 8.36377 15.0108C8.2644 15.002 8.16772 14.9734 8.07959 14.9267C7.99133 14.88 7.91333 14.8162 7.8501 14.739C7.78687 14.6618 7.73962 14.5728 7.71118 14.4771C7.68286 14.3814 7.67383 14.2811 7.68469 14.1818C7.69568 14.0826 7.7262 13.9866 7.77466 13.8994C8.0885 13.3155 8.25281 12.6629 8.25281 12C8.25281 11.3371 8.0885 10.6845 7.77466 10.1006C7.68652 9.92529 7.67065 9.72247 7.73035 9.53552C7.79004 9.34863 7.92065 9.19257 8.09412 9.10077C8.26758 9.00903 8.46997 8.98889 8.65808 9.04474C8.84619 9.10052 9.005 9.22784 9.10034 9.39935ZM14.3503 6.39935C15.2728 8.12305 15.7555 10.0478 15.7555 12.0028C15.7555 13.9578 15.2728 15.8826 14.3503 17.6063C14.2505 17.7702 14.0916 17.8896 13.9062 17.9399C13.7209 17.9902 13.5234 17.9676 13.3544 17.8766C13.1853 17.7856 13.0576 17.6333 12.9974 17.451C12.9374 17.2687 12.9495 17.0703 13.0312 16.8965C13.8379 15.3905 14.26 13.7085 14.26 12C14.26 10.2915 13.8379 8.6095 13.0312 7.10345C12.9375 6.92792 12.9174 6.72229 12.9752 6.53192C13.0331 6.34149 13.1642 6.18188 13.3397 6.08813C13.5153 5.99438 13.7208 5.97424 13.9113 6.03204C14.1017 6.0899 14.2612 6.22101 14.355 6.39655L14.3503 6.39935ZM11.7253 7.89935C12.3987 9.16199 12.7509 10.5709 12.7509 12.0019C12.7509 13.4328 12.3987 14.8417 11.7253 16.1044C11.6801 16.1931 11.6176 16.2718 11.5415 16.3361C11.4655 16.4003 11.3773 16.4489 11.2823 16.4787C11.1874 16.5085 11.0874 16.5192 10.9882 16.51C10.889 16.5009 10.7927 16.472 10.7048 16.4252C10.6169 16.3784 10.5393 16.3146 10.4763 16.2374C10.4133 16.1603 10.3665 16.0714 10.3381 15.9758C10.3099 15.8804 10.301 15.7802 10.3119 15.6812C10.3228 15.5823 10.3533 15.4865 10.4016 15.3994C10.9594 14.3538 11.2511 13.187 11.2511 12.0019C11.2511 10.8168 10.9594 9.64996 10.4016 8.60437C10.3533 8.51733 10.3228 8.42151 10.3119 8.32251C10.301 8.22351 10.3099 8.12335 10.3381 8.02789C10.3665 7.93243 10.4133 7.84351 10.4763 7.76636C10.5393 7.68921 10.6169 7.62537 10.7048 7.57855C10.7927 7.53174 10.889 7.50293 10.9882 7.49371C11.0874 7.48456 11.1874 7.49518 11.2823 7.52502C11.3773 7.55493 11.4655 7.60339 11.5415 7.66766C11.6176 7.73193 11.6801 7.81067 11.7253 7.89935Z" fill="#F9FAFB" fill-opacity="1.000000" fill-rule="nonzero"/>
		</g>
	</g>
</svg>
