<svg width="20.000000" height="20.000000" viewBox="0 0 20 20" fill="none" xmlns="http://www.w3.org/2000/svg" xmlns:xlink="http://www.w3.org/1999/xlink">
	<defs>
		<clipPath id="clip34_181">
			<rect id="ShieldCheck" width="20.000000" height="20.000000" fill="white" fill-opacity="0"/>
		</clipPath>
	</defs>
	<rect id="ShieldCheck" width="20.000000" height="20.000000" fill="#FFFFFF" fill-opacity="0"/>
	<g clip-path="url(#clip34_181)">
		<path id="Vector" d="M16.25 3.125L3.75 3.125C3.41846 3.125 3.10059 3.25671 2.86609 3.49109C2.63171 3.72552 2.5 4.04346 2.5 4.375L2.5 8.96643C2.5 15.9672 8.42346 18.2899 9.60938 18.6844C9.86267 18.7705 10.1373 18.7705 10.3906 18.6844C11.5781 18.2899 17.5 15.9672 17.5 8.96643L17.5 4.375C17.5 4.04346 17.3683 3.72552 17.1339 3.49109C16.8994 3.25671 16.5815 3.125 16.25 3.125ZM13.5671 8.5672L9.19214 12.9422C9.13416 13.0003 9.06519 13.0464 8.98938 13.0778C8.91345 13.1093 8.83215 13.1255 8.75 13.1255C8.66785 13.1255 8.58655 13.1093 8.51062 13.0778C8.43481 13.0464 8.36584 13.0003 8.30786 12.9422L6.43286 11.0672C6.31555 10.9499 6.24963 10.7908 6.24963 10.625C6.24963 10.4592 6.31555 10.3001 6.43286 10.1828C6.55005 10.0656 6.70911 9.99963 6.875 9.99963C7.04089 9.99963 7.19995 10.0656 7.31714 10.1828L8.75 11.6156L12.6829 7.6828C12.7408 7.62476 12.8098 7.57867 12.8857 7.54724C12.9615 7.51581 13.0428 7.49963 13.125 7.49963C13.2072 7.49963 13.2885 7.51581 13.3643 7.54724C13.4402 7.57867 13.5092 7.62476 13.5671 7.6828C13.6252 7.74091 13.6713 7.80981 13.7028 7.88568C13.7341 7.96155 13.7504 8.04291 13.7504 8.125C13.7504 8.20709 13.7341 8.28845 13.7028 8.36432C13.6713 8.44019 13.6252 8.50909 13.5671 8.5672Z" fill="#6EE7B7" fill-opacity="1.000000" fill-rule="nonzero"/>
	</g>
</svg>
