<svg width="32.000000" height="10.346680" viewBox="0 0 32 10.3467" fill="none" xmlns="http://www.w3.org/2000/svg" xmlns:xlink="http://www.w3.org/1999/xlink">
	<desc>
			Created with Pixso.
	</desc>
	<defs/>
	<path id="Vector" d="M29.6294 10.1973L29.3293 8.69733L25.9773 8.69733L25.444 10.1866L22.7573 10.192C24.0364 7.11621 25.3181 4.0415 26.6027 0.968018C26.8213 0.446655 27.2094 0.181335 27.7814 0.184021C28.2186 0.187988 28.932 0.187988 29.9226 0.185364L32 10.1934L29.6294 10.1973ZM26.7321 6.64264L28.892 6.64264L28.0853 2.88269L26.7321 6.64264ZM9.41333 0.182678L12.1146 0.185364L7.93872 10.1987L5.20398 10.196C4.51636 7.55109 3.83716 4.90399 3.16663 2.25464C3.03333 1.72668 2.76929 1.35736 2.26135 1.18268C1.51099 0.931213 0.75708 0.690308 0 0.460022L0 0.186646L4.31604 0.186646C5.06262 0.186646 5.49866 0.547974 5.63867 1.28931C5.78003 2.03198 6.13464 3.92267 6.70532 6.9613L9.41333 0.182678ZM15.8267 0.185364L13.6907 10.196L11.12 10.1934L13.2533 0.182678L15.8267 0.185364ZM21.04 0C21.8093 0 22.7787 0.23999 23.3361 0.460022L22.8854 2.53601C22.3813 2.33331 21.552 2.06 20.8546 2.06934C19.8413 2.08667 19.2147 2.51202 19.2147 2.91998C19.2147 3.58398 20.3026 3.91864 21.4226 4.64398C22.7013 5.47064 22.8694 6.21332 22.8533 7.02002C22.8359 8.69464 21.4226 10.3467 18.4413 10.3467C17.0813 10.3267 16.5907 10.212 15.4813 9.81866L15.9507 7.65198C17.08 8.12531 17.5587 8.276 18.524 8.276C19.408 8.276 20.1666 7.91864 20.1733 7.29602C20.1787 6.85333 19.9066 6.63336 18.9147 6.08667C17.9226 5.5387 16.5306 4.78003 16.5493 3.25732C16.572 1.30798 18.4187 0 21.0414 0L21.04 0Z" fill="#F9FAFB" fill-opacity="1.000000" fill-rule="nonzero"/>
</svg>
